<svg width="98" height="98" viewBox="0 0 98 98" fill="none" xmlns="http://www.w3.org/2000/svg">
<path d="M55.3648 10.7133L76.5516 18.473L97.8257 26.2328H55.3648H12.9039L34.0908 18.473L55.3648 10.7133Z" fill="#FFE34C"/>
<path d="M6.53909 24.7507H91.4608C92.2455 24.7507 92.8558 24.2276 92.943 23.4429C93.0302 22.7453 92.6814 21.9606 91.9839 21.6991L49.5231 6.26669C49.1743 6.1795 48.8256 6.1795 48.4768 6.26669L6.01596 21.7863C5.31845 22.0478 4.88251 22.7453 5.05688 23.53C5.14407 24.2276 5.84158 24.7507 6.53909 24.7507ZM48.9999 9.40548L82.7419 21.6991H15.258L48.9999 9.40548Z" fill="#231F20"/>
<path d="M96.4306 82.2079H92.1584V77.4126C92.1584 76.5407 91.4609 75.8432 90.589 75.8432H88.0605V71.135C88.0605 70.2631 87.363 69.5656 86.4911 69.5656H85.532V32.3361H89.3683C90.2402 32.3361 90.9377 31.6385 90.9377 30.7667C90.9377 29.8948 90.2402 29.1973 89.3683 29.1973H83.9626H76.29H52.7491H45.0765H21.5356H13.863H8.4573C7.58541 29.1973 6.8879 29.8948 6.8879 30.7667C6.8879 31.6385 7.58541 32.3361 8.4573 32.3361H12.2936V69.6528H11.3345C10.4626 69.6528 9.76512 70.3503 9.76512 71.2222V75.9304H7.23666C6.36477 75.9304 5.66726 76.6279 5.66726 77.4997V82.2951H1.56939C0.697509 82.2951 0 82.9926 0 83.8645V90.2293C0 91.1012 0.697509 91.7987 1.56939 91.7987H96.4306C97.3025 91.7987 98 91.1012 98 90.2293V83.7773C98 82.9054 97.3025 82.2079 96.4306 82.2079ZM56.847 75.8432V71.135C56.847 70.2631 56.1495 69.5656 55.2776 69.5656H54.3185V32.3361H74.8078V69.6528H73.8488C72.9769 69.6528 72.2794 70.3503 72.2794 71.2222V75.9304H56.847V75.8432ZM25.7206 75.8432V71.135C25.7206 70.2631 25.0231 69.5656 24.1512 69.5656H23.1922V32.3361H43.6815V69.6528H42.7224C41.8505 69.6528 41.153 70.3503 41.153 71.2222V75.9304H25.7206V75.8432ZM44.2046 72.7044H45.1637H52.8363H53.7954V75.8432H44.2046V72.7044ZM75.4182 72.7044H76.3772H84.0498H85.0089V75.8432H75.4182V72.7044ZM82.4804 32.3361V69.6528H77.9466V32.3361H82.4804ZM51.2669 32.3361V69.6528H46.7331V32.3361H51.2669ZM15.5196 32.3361H20.0534V69.6528H15.5196V32.3361ZM12.9911 72.7044H13.9502H21.6228H22.5819V75.8432H12.9911V72.7044ZM8.98043 78.982H11.5089H24.2384H42.7224H55.452H73.9359H86.6655H89.194V82.2079H8.98043V78.982ZM94.8612 88.5727H3.13879V85.3467H7.41103H90.589H94.8612V88.5727Z" fill="#231F20"/>
</svg>
