<svg width="98" height="98" viewBox="0 0 98 98" fill="none" xmlns="http://www.w3.org/2000/svg">
<g clip-path="url(#clip0)">
<path d="M65.9403 61.5642H52.3711V90.9642H65.9403V61.5642Z" fill="#FFE34C"/>
<path d="M80.5146 35.8496C87.1298 35.8496 92.4924 30.487 92.4924 23.8718C92.4924 17.2567 87.1298 11.894 80.5146 11.894C73.8995 11.894 68.5369 17.2567 68.5369 23.8718C68.5369 30.487 73.8995 35.8496 80.5146 35.8496Z" fill="#FFE34C"/>
<path d="M74.0651 27.0547C73.8139 26.971 73.6463 26.8872 73.4788 26.8035L73.2275 26.6359V26.3009L73.3951 24.7094L73.4788 24.1231L73.9814 24.3744C74.0651 24.3744 74.1489 24.4582 74.2327 24.4582C74.3164 24.4582 74.4002 24.5419 74.4839 24.5419C74.6515 24.6257 74.9028 24.7094 75.0703 24.7094C75.2378 24.7932 75.4891 24.7932 75.6566 24.877C75.8241 24.877 75.9916 24.9607 76.1592 24.9607C76.3267 24.9607 76.4942 24.9607 76.6617 25.0445C76.7455 25.0445 76.913 25.0445 76.9968 25.0445C77.0805 25.0445 77.2481 25.0445 77.3318 25.0445C77.4993 25.0445 77.6669 25.0445 77.7506 24.9607C77.9181 24.9607 78.0019 24.877 78.1694 24.7932C78.3369 24.7094 78.4207 24.6257 78.5045 24.5419C78.5882 24.4582 78.672 24.3744 78.7558 24.2069C78.8395 24.1231 78.8395 23.9556 78.9233 23.8718C78.9233 23.7043 78.9233 23.6206 78.9233 23.453C78.9233 23.2855 78.9233 23.2018 78.8395 23.0342C78.7558 22.9505 78.7557 22.783 78.672 22.6992C78.5882 22.6154 78.5045 22.5317 78.4207 22.4479C78.3369 22.3641 78.2532 22.2804 78.0857 22.1966C78.0019 22.1129 77.8344 22.0291 77.7506 22.0291C77.6669 21.9453 77.4993 21.9453 77.3318 21.8616C77.0805 21.7778 76.8292 21.6941 76.578 21.5265C76.3267 21.4428 76.0754 21.2753 75.8241 21.1915C75.5728 21.1077 75.3216 20.9402 75.154 20.7727C74.9865 20.6052 74.7352 20.5214 74.5677 20.2701C74.4002 20.1026 74.2327 19.9351 74.0651 19.7676C73.8976 19.6 73.8139 19.3488 73.6463 19.1812C73.5626 18.93 73.4788 18.6787 73.3951 18.4274C73.3113 18.1761 73.3113 17.9248 73.3113 17.6735C73.3113 17.3385 73.3113 17.0872 73.3951 16.7522C73.4788 16.5009 73.5626 16.1659 73.6463 15.9146C73.7301 15.6633 73.8976 15.412 74.0651 15.1607C74.2327 14.9094 74.4002 14.7419 74.6515 14.4906C74.9028 14.3231 75.0703 14.1556 75.3216 13.9881C75.5728 13.8206 75.8241 13.7368 76.0754 13.653H76.1592V12.2291V11.8103H76.578H77.9181H78.3369V12.2291V13.5693H78.5045C78.672 13.5693 78.7557 13.653 78.9233 13.653C79.0908 13.653 79.2583 13.7368 79.3421 13.7368C79.4258 13.7368 79.5934 13.8206 79.6771 13.8206C79.7609 13.8206 79.8446 13.9043 80.0122 13.9043L80.3472 13.9881L80.2634 14.3231L80.0959 15.8308L80.0122 16.3334L79.5096 16.1659C79.4258 16.1659 79.3421 16.0821 79.1746 16.0821C79.0908 16.0821 79.007 15.9983 78.8395 15.9983C78.672 15.9983 78.5045 15.9146 78.3369 15.9146C78.1694 15.9146 78.0019 15.8308 77.8344 15.8308C77.7506 15.8308 77.5831 15.8308 77.4993 15.8308C77.4156 15.8308 77.3318 15.8308 77.1643 15.8308C76.9968 15.8308 76.8293 15.8308 76.6617 15.9146C76.4942 15.9983 76.4105 15.9983 76.2429 16.0821C76.1592 16.1659 75.9916 16.2496 75.9079 16.3334C75.8241 16.4171 75.7404 16.5847 75.7404 16.6684C75.6566 16.7522 75.6566 16.9197 75.6566 17.0872C75.6566 17.2547 75.6566 17.3385 75.6566 17.506C75.6566 17.6735 75.7404 17.7573 75.7404 17.9248C75.8241 18.0086 75.8241 18.1761 75.9079 18.2599C75.9916 18.3436 76.0754 18.4274 76.1592 18.5112C76.2429 18.5949 76.4104 18.6787 76.4942 18.7624C76.578 18.8462 76.7455 18.8462 76.8293 18.93C76.9968 19.0137 77.0805 19.0137 77.2481 19.0975C77.4993 19.1812 77.7506 19.265 78.0019 19.4325C78.2532 19.5163 78.5045 19.6838 78.7558 19.7676C79.007 19.8513 79.1746 20.0188 79.4258 20.1864C79.6771 20.3539 79.8446 20.5214 80.0122 20.6889C80.1797 20.8565 80.3472 21.024 80.5147 21.1915C80.6822 21.359 80.766 21.6103 80.8498 21.7778C80.9335 22.0291 81.0173 22.2804 81.101 22.4479C81.1848 22.6992 81.1848 22.9505 81.1848 23.2018C81.1848 23.5368 81.1848 23.7881 81.101 24.1231C81.0173 24.4582 80.9335 24.7094 80.8498 24.9607C80.766 25.212 80.5985 25.4633 80.431 25.7146C80.2634 25.9659 80.0959 26.1334 79.8446 26.3009C79.5934 26.4684 79.3421 26.6359 79.0908 26.8035C78.8395 26.971 78.5045 27.0547 78.2532 27.1385H78.1694V28.5624V28.9812H77.7506H76.4104H75.9916V28.5624V27.2223H75.8241C75.5728 27.2223 75.3216 27.1385 75.0703 27.1385C74.819 27.0547 74.5677 27.0547 74.4002 26.971C74.484 27.1385 74.2327 27.0547 74.0651 27.0547Z" fill="black"/>
<path d="M77.3317 34.0068C84.7864 34.0068 90.8171 27.9761 90.8171 20.5214C90.8171 13.0667 84.7864 7.03589 77.3317 7.03589C69.877 7.03589 63.8462 13.1504 63.8462 20.6051C63.8462 28.0598 69.877 34.0068 77.3317 34.0068ZM77.3317 10.135C83.1111 10.135 87.8017 14.8256 87.8017 20.6051C87.8017 26.3846 83.1111 31.0752 77.3317 31.0752C71.5522 31.0752 66.8616 26.3846 66.8616 20.6051C66.8616 14.8256 71.5522 10.135 77.3317 10.135Z" fill="#231F20"/>
<path d="M13.2547 56.9572C13.5897 56.9572 13.841 56.8735 14.0923 56.7059L34.1111 42.3828L53.4598 50.4239C53.9623 50.5914 54.5487 50.5914 54.9675 50.2564L70.547 37.9435C71.217 37.441 71.3008 36.5196 70.7982 35.8495C70.2957 35.1794 69.3743 35.0957 68.7042 35.5982L53.7948 47.4085L34.5299 39.3675C34.0273 39.1999 33.5247 39.1999 33.1059 39.535L12.4171 54.2769C11.747 54.7794 11.5794 55.7008 12.082 56.3709C12.3333 56.7897 12.8359 56.9572 13.2547 56.9572Z" fill="#231F20"/>
<path d="M92.4923 86.3572H85.6239V43.6393C85.6239 42.8017 84.9538 42.1316 84.1162 42.1316H70.547C69.7094 42.1316 69.0393 42.8017 69.0393 43.6393V86.3572H64.0137V58.3812C64.0137 57.5436 63.3436 56.8735 62.506 56.8735H49.0205C48.1829 56.8735 47.5128 57.5436 47.5128 58.3812V86.3572H42.4872V56.2034C42.4872 55.3658 41.8171 54.6957 40.9795 54.6957H27.4103C26.5726 54.6957 25.9026 55.3658 25.9026 56.2034V86.3572H20.8769V64.8307C20.8769 63.9931 20.2068 63.323 19.3692 63.323H5.88376C5.04615 63.323 4.37607 63.9931 4.37607 64.8307V86.3572H-2.49231C-3.32991 86.3572 -4 87.0273 -4 87.8649C-4 88.7025 -3.32991 89.3726 -2.49231 89.3726H5.88376H19.453H27.4103H40.9795H48.9368H62.5897H70.547H84.1162H92.4923C93.3299 89.3726 94 88.7025 94 87.8649C94 87.0273 93.2462 86.3572 92.4923 86.3572ZM72.0547 45.0632H82.6923V86.3572H72.0547V45.0632ZM50.4444 59.8889H61.082V86.3572H50.4444V59.8889ZM28.9179 57.6273H39.5556V86.2735H28.9179V57.6273ZM7.39145 66.2547H18.0291V86.2735H7.39145V66.2547Z" fill="#231F20"/>
</g>
<defs>
<clipPath id="clip0">
<rect width="98" height="98" fill="white"/>
</clipPath>
</defs>
</svg>
